<svg width="1920" height="1080" viewBox="0 0 1920 1080" fill="none" xmlns="http://www.w3.org/2000/svg">
<rect width="1920" height="1080" fill="#111118"/>
<rect width="1920" height="1080" fill="#111118"/>
<rect width="1920" height="1080" fill="url(#paint0_linear_2134_14458)" fill-opacity="0.5"/>
<g clip-path="url(#clip0_2134_14458)">
<path d="M-600.215 702.641L464.923 836.334L1204.04 96.5117L2234.75 1128.2V338.602L2538.38 640.224L3064.27 613.494" stroke="url(#paint1_linear_2134_14458)" stroke-miterlimit="10"/>
<path d="M-598.383 706.04C-597.971 705.912 423.9 830.988 443.133 830.277C462.366 829.566 1176.78 132.583 1176.78 132.583L1389.15 372.513L1815.57 727.964C1815.57 727.964 2216 1129.77 2216 1128.77C2216 1127.78 2243.13 358.366 2243.13 358.366L2491.55 598.58L2545.53 649.58L3062.41 628.437" stroke="url(#paint2_linear_2134_14458)" stroke-miterlimit="10"/>
<path d="M-596.55 709.481C-595.74 709.211 382.878 825.671 421.344 824.249C459.526 822.827 1149.52 168.697 1149.52 168.697L1348.61 422.802L1786.11 718.125C1786.11 718.125 2197.05 1131.43 2197.05 1129.44C2197.05 1127.45 2251.65 378.2 2251.65 378.2L2498.68 610.509L2552.66 658.95L3060.62 643.509" stroke="url(#paint3_linear_2134_14458)" stroke-miterlimit="10"/>
<path d="M-594.718 712.835C-593.51 712.437 341.855 820.281 399.597 818.134C456.812 816.001 1122.28 204.739 1122.28 204.739L1308.09 472.977L1756.86 708.186C1756.86 708.186 2178.3 1133.02 2178.3 1130.02C2178.3 1127.02 2260.07 397.92 2260.07 397.92L2505.81 622.352L2559.79 668.233L3058.79 658.437" stroke="url(#paint4_linear_2134_14458)" stroke-miterlimit="10"/>
<path d="M-592.886 716.234C-591.281 715.693 300.832 814.921 377.75 812.063C454.113 809.22 1095.08 240.782 1095.08 240.782L1267.56 523.224L1727.5 698.248C1727.5 698.248 2159.49 1134.6 2159.49 1130.59C2159.49 1126.58 2268.51 417.655 2268.51 417.655L2512.83 634.224L2566.8 677.532L3056.86 673.381" stroke="url(#paint5_linear_2134_14458)" stroke-miterlimit="10"/>
<path d="M-591.053 719.618C-589.05 718.949 259.796 809.575 355.961 805.992C451.415 802.452 1067.76 276.854 1067.76 276.854L1227.04 573.342L1698.24 688.338C1698.24 688.338 2140.67 1136.21 2140.67 1131.19C2140.67 1126.17 2276.95 437.418 2276.95 437.418L2519.93 646.11L2573.91 686.859L3055.01 688.352" stroke="url(#paint6_linear_2134_14458)" stroke-miterlimit="10"/>
<path d="M-589.249 723.015C-586.848 722.219 218.759 804.215 334.142 799.921C448.687 795.655 1040.47 312.91 1040.47 312.91L1186.47 623.546L1668.9 678.428C1668.9 678.428 2121.86 1137.77 2121.86 1131.76C2121.86 1125.74 2285.4 457.152 2285.4 457.152L2527.03 658.011L2581.01 696.2L3053.15 703.309" stroke="url(#paint7_linear_2134_14458)" stroke-miterlimit="10"/>
<path d="M-587.389 726.414C-584.548 725.475 177.765 798.926 312.366 793.864C446.002 788.888 1013.24 348.981 1013.24 348.981L1145.97 673.736L1639.61 668.504C1639.61 668.504 2103.04 1139.38 2103.04 1132.38C2103.04 1125.39 2293.84 476.93 2293.84 476.93L2534.12 669.883L2588.1 705.513L3051.29 718.309" stroke="url(#paint8_linear_2134_14458)" stroke-miterlimit="10"/>
<path d="M-585.57 729.812C-582.36 728.746 136.742 793.509 290.577 787.794C443.304 782.106 986.029 385.039 986.029 385.039L1105.49 723.94L1610.33 658.537C1610.33 658.537 2084.28 1140.91 2084.28 1132.94C2084.28 1124.96 2302.33 496.651 2302.33 496.651L2541.26 681.741L2595.24 714.798L3049.47 733.282" stroke="url(#paint9_linear_2134_14458)" stroke-miterlimit="10"/>
<path d="M-583.737 733.21C-580.129 732.001 95.7061 788.162 268.788 781.722C440.662 775.338 958.728 421.109 958.728 421.109L1064.92 774.129L1580.97 648.683C1580.97 648.683 2065.41 1142.56 2065.41 1133.52C2065.41 1124.48 2310.73 516.456 2310.73 516.456L2548.31 693.669L2602.29 724.167L3047.57 748.224" stroke="url(#paint10_linear_2134_14458)" stroke-miterlimit="10"/>
<path d="M-581.905 736.594C-577.9 735.258 54.6831 782.803 246.998 775.651C437.906 768.542 931.484 457.167 931.484 457.167L1024.38 824.334L1551.65 638.76C1551.65 638.76 2046.61 1144.17 2046.61 1134.19C2046.61 1124.21 2319.16 536.234 2319.16 536.234L2555.41 705.585L2609.39 733.509L3045.68 763.21" stroke="url(#paint11_linear_2134_14458)" stroke-miterlimit="10"/>
<path d="M-580.073 739.993C-575.67 738.571 13.6744 777.457 225.193 769.58C435.193 761.775 904.168 493.238 904.168 493.238L983.798 874.524L1522.28 628.85C1522.28 628.85 2027.79 1145.76 2027.79 1134.78C2027.79 1123.81 2327.61 555.997 2327.61 555.997L2562.5 717.471L2616.48 742.836L3043.85 778.182" stroke="url(#paint12_linear_2134_14458)" stroke-miterlimit="10"/>
<path d="M-578.24 743.39C-573.439 741.784 -27.3616 772.04 203.362 763.509C432.452 754.978 876.925 529.295 876.925 529.295L943.288 924.713L1493 618.926C1493 618.926 2008.98 1147.4 2008.98 1135.38C2008.98 1123.37 2336.05 575.831 2336.05 575.831L2569.6 729.386L2623.58 752.134L3042 793.125" stroke="url(#paint13_linear_2134_14458)" stroke-miterlimit="10"/>
<path d="M-576.465 746.788C-571.266 745.053 -68.4413 766.693 181.558 757.452C429.795 748.224 849.666 565.38 849.666 565.38L902.762 974.86L1463.67 608.972C1463.67 608.972 1990.16 1148.96 1990.16 1136.02C1990.16 1123.08 2344.49 595.565 2344.49 595.565L2576.69 741.3L2630.67 761.532L3040.14 808.167" stroke="url(#paint14_linear_2134_14458)" stroke-miterlimit="10"/>
<path d="M-574.576 750.186C-568.98 748.31 -109.407 761.39 159.796 751.381C427.096 741.442 822.45 601.423 822.45 601.423L862.222 1025.12L1434.35 599.105C1434.35 599.105 1971.28 1150.55 1971.28 1136.55C1971.28 1122.54 2352.87 615.257 2352.87 615.257L2583.72 753.172L2637.7 770.859L3038.27 823.125" stroke="url(#paint15_linear_2134_14458)" stroke-miterlimit="10"/>
<path d="M-572.743 753.556C-566.749 751.551 -150.429 756.016 138.021 745.295C424.384 734.646 795.192 637.494 795.192 637.494L821.74 1075.31L1405.06 589.195C1405.06 589.195 1952.52 1152.14 1952.52 1137.17C1952.52 1122.2 2361.37 635.049 2361.37 635.049L2590.87 765.044L2644.84 780.158L3036.41 838.068" stroke="url(#paint16_linear_2134_14458)" stroke-miterlimit="10"/>
<path d="M-570.925 756.968C-564.519 754.835 -191.452 750.684 116.232 739.238C421.628 727.864 767.934 673.579 767.934 673.579L781.215 1125.51L1375.76 579.285C1375.76 579.285 1933.72 1153.69 1933.72 1137.77C1933.72 1121.85 2369.8 654.811 2369.8 654.811L2597.96 776.93L2651.93 789.485L3034.49 853.082" stroke="url(#paint17_linear_2134_14458)" stroke-miterlimit="10"/>
<path d="M-569.093 760.366C-555.527 755.845 740.675 709.636 740.675 709.636V1175.7L1346.44 569.375C1346.44 569.375 1914.9 1155.34 1914.9 1138.38C1914.9 1121.42 2378.27 674.574 2378.27 674.574L2605.07 788.831L3032.63 868.011" stroke="url(#paint18_linear_2134_14458)" stroke-miterlimit="10"/>
<path d="M-567.303 749.135C-559.831 746.646 -83.5688 742.992 264.086 730.225C511.244 721.139 752.152 698.163 752.152 698.163L771.399 978.912L779.652 1134.27L908.345 1023.19L1181.27 751.21L1350.2 605.404C1350.2 605.404 1368.24 623.575 1393.06 649.082C1516.98 776.447 1924.31 1119.27 1924.31 1105.96C1924.31 1090 2381.95 693.641 2381.95 693.641L2604.38 785.305L2613.92 786.372L3037.31 863.334" stroke="url(#paint19_linear_2134_14458)" stroke-miterlimit="10"/>
<path d="M-565.514 737.916C-558.511 735.57 -52.1066 745.167 273.801 733.196C505.476 724.665 763.629 686.689 763.629 686.689L802.109 939.471L818.629 1092.86L949.31 997.595L1182.56 766.509L1353.92 641.433C1353.92 641.433 1374.19 661.48 1397.46 685.395C1513.64 804.826 1933.62 1086.03 1933.62 1073.55C1933.62 1058.58 2385.55 712.75 2385.55 712.75L2603.58 781.807L2612.91 782.163L3041.89 858.684" stroke="url(#paint20_linear_2134_14458)" stroke-miterlimit="10"/>
<path d="M-563.681 726.656C-557.161 724.48 -20.6288 747.315 283.56 736.139C499.795 728.191 775.135 675.187 775.135 675.187L832.82 900.002L857.606 1051.4L990.234 971.775L1183.83 781.594L1357.72 677.405C1357.72 677.405 1380.22 699.329 1401.92 721.637C1510.36 833.092 1943.03 1052.75 1943.03 1041.1C1943.03 1027.13 2389.23 731.803 2389.23 731.803L2602.88 778.267L2611.99 777.883L3046.65 853.978" stroke="url(#paint21_linear_2134_14458)" stroke-miterlimit="10"/>
<path d="M-561.92 715.423C-555.869 713.404 10.8051 749.461 293.261 739.082C494.042 731.717 786.569 663.727 786.569 663.727L863.529 860.561L896.54 1009.96L1031.14 946.154L1185.06 796.864L1361.44 713.49C1361.44 713.49 1386.15 737.291 1406.31 758.006C1507.01 861.5 1952.36 1019.62 1952.36 1008.76C1952.36 995.775 2392.86 750.968 2392.86 750.968L2602.14 774.883L2611.04 773.76L3051.28 849.443" stroke="url(#paint22_linear_2134_14458)" stroke-miterlimit="10"/>
<path d="M-560.13 704.192C-554.533 702.329 42.2542 751.623 302.992 742.04C488.332 735.23 798.047 652.225 798.047 652.225L894.254 821.092L935.56 968.534L1072.12 920.477L1186.4 812.078L1365.23 749.519C1365.23 749.519 1392.22 775.182 1410.79 794.32C1503.73 889.837 1961.78 986.263 1961.78 976.311C1961.78 964.339 2396.55 770.035 2396.55 770.035L2601.42 771.301L2610.09 769.452L3055.94 844.694" stroke="url(#paint23_linear_2134_14458)" stroke-miterlimit="10"/>
<path d="M-558.34 692.959C-553.212 691.239 73.7599 753.784 312.722 744.997C482.608 738.756 809.524 640.736 809.524 640.736L924.95 781.637L974.524 927.102L1113.05 894.799L1187.73 827.306L1369.05 785.547C1369.05 785.547 1398.21 813.088 1415.27 830.618C1500.5 918.187 1971.21 953.093 1971.21 943.936C1971.21 932.96 2400.19 789.159 2400.19 789.159L2600.67 767.831L2609.19 765.244L3060.65 840.059" stroke="url(#paint24_linear_2134_14458)" stroke-miterlimit="10"/>
<path d="M-556.579 681.726C-551.92 680.162 105.137 755.945 322.409 747.954C476.869 742.267 820.987 629.262 820.987 629.262L955.674 742.181L1013.5 885.656L1154.01 869.12L1188.95 842.518L1372.76 821.575C1372.76 821.575 1404.15 850.992 1419.63 866.931C1497.09 946.552 1980.51 919.85 1980.51 911.533C1980.51 901.58 2403.81 808.253 2403.81 808.253L2599.83 764.319L2608.04 761.006L3065.13 835.409" stroke="url(#paint25_linear_2134_14458)" stroke-miterlimit="10"/>
<path d="M-554.761 670.48C-550.57 669.058 136.629 758.091 332.168 750.911C471.173 745.807 832.464 617.773 832.464 617.773L986.384 702.726L1052.48 844.224L1194.95 843.442L1190.25 857.746L1376.51 857.603C1376.51 857.603 1410.13 888.883 1424.08 903.243C1493.8 974.888 1989.89 886.608 1989.89 879.073C1989.89 870.087 2407.5 827.305 2407.5 827.305L2599.26 760.764L2607.24 756.726L3069.96 830.66" stroke="url(#paint26_linear_2134_14458)" stroke-miterlimit="10"/>
<path d="M-552.971 659.247C-549.235 658.01 168.078 760.195 341.912 753.868C465.463 749.29 843.984 606.285 843.984 606.285L1017.11 663.271L1091.45 802.793L1235.89 817.764L1191.53 872.987L1380.27 893.66C1380.27 893.66 1416.11 926.817 1428.57 939.57C1490.53 1003.25 1999.32 853.395 1999.32 846.741C1999.32 838.764 2411.25 846.485 2411.25 846.485L2598.57 757.352L2606.34 752.575L3074.59 826.068" stroke="url(#paint27_linear_2134_14458)" stroke-miterlimit="10"/>
<path d="M-551.181 648.015C-547.914 646.921 199.541 762.414 351.628 756.826C459.739 752.845 855.348 594.812 855.348 594.812L1047.76 623.816L1130.38 761.362L1276.78 792.087L1192.75 888.172L1383.98 929.661C1383.98 929.661 1422.04 964.694 1432.89 975.855C1487.11 1031.58 2008.58 820.139 2008.58 814.31C2008.58 807.329 2414.83 865.495 2414.83 865.495L2597.77 753.769L2605.31 748.253L3079.25 821.376" stroke="url(#paint28_linear_2134_14458)" stroke-miterlimit="10"/>
<path d="M-549.392 636.783C-546.551 635.845 230.989 764.575 361.358 759.783C454.028 756.371 866.881 583.323 866.881 583.323L1078.53 584.375L1169.44 719.93L1317.77 766.352L1194.08 903.343L1387.79 965.647C1387.79 965.647 1428.07 1002.54 1437.38 1012.1C1483.85 1059.87 2018.01 786.84 2018.01 781.85C2018.01 775.864 2418.48 884.589 2418.48 884.589L2597.03 750.257L2604.36 744.03L3083.9 816.712" stroke="url(#paint29_linear_2134_14458)" stroke-miterlimit="10"/>
<path d="M-547.602 625.593C-545.272 624.811 262.438 766.764 371.088 762.783C448.304 759.94 878.359 571.878 878.359 571.878L1109.24 544.963L1208.39 678.527L1358.71 740.76L1195.36 918.627L1391.54 1001.75C1391.54 1001.75 1434.05 1040.52 1441.81 1048.48C1480.53 1088.29 2027.37 753.67 2027.37 749.518C2027.37 744.527 2422.13 903.755 2422.13 903.755L2596.29 746.831L2603.39 739.864L3088.55 812.134" stroke="url(#paint30_linear_2134_14458)" stroke-miterlimit="10"/>
<path d="M-545.812 614.305C-543.951 613.694 293.901 768.884 380.804 765.699C442.594 763.424 889.822 560.362 889.822 560.362L1139.96 505.466L1247.35 637.054L1399.66 715.068L1196.65 933.841L1395.3 1037.76C1395.3 1037.76 1440.05 1078.4 1446.25 1084.78C1477.23 1116.61 2036.76 720.414 2036.76 717.101C2036.76 713.106 2425.8 922.851 2425.8 922.851L2595.57 743.32L2602.46 735.613L3093.24 807.457" stroke="url(#paint31_linear_2134_14458)" stroke-miterlimit="10"/>
<path d="M-544.021 603.072C-542.601 602.603 325.293 771.044 390.535 768.641C436.87 766.949 901.3 548.816 901.3 548.816L1170.69 466.01L1286.34 595.621L1440.57 689.389L1197.93 949.054L1399.07 1073.79C1399.07 1073.79 1446.03 1116.3 1450.69 1121.08C1473.91 1144.96 2046.14 687.186 2046.14 684.683C2046.14 681.698 2429.46 941.945 2429.46 941.945L2594.84 739.821L2601.51 731.39L3097.9 802.807" stroke="url(#paint32_linear_2134_14458)" stroke-miterlimit="10"/>
<path d="M-542.232 591.84C-541.295 591.527 356.812 773.205 400.264 771.599C431.159 770.461 912.776 537.442 912.776 537.442L1201.38 426.541L1325.3 554.176L1481.55 663.655L1199.22 964.268L1402.83 1109.82C1402.83 1109.82 1452.01 1154.21 1455.12 1157.39C1470.6 1173.32 2055.51 653.944 2055.51 652.281C2055.51 650.29 2433.11 961.04 2433.11 961.04L2594.12 736.395L2600.55 727.224L3102.5 798.144" stroke="url(#paint33_linear_2134_14458)" stroke-miterlimit="10"/>
<path d="M-540.442 580.608C-539.974 580.452 388.261 775.395 409.994 774.557C425.434 773.988 924.197 525.911 924.197 525.911L1232.05 387.101L1364.24 512.745L1522.45 638.035L1200.52 979.495L1406.6 1145.85C1406.6 1145.85 1458 1192.1 1459.56 1193.7C1467.31 1201.65 2064.9 620.717 2064.9 619.878C2064.9 619.04 2436.79 980.135 2436.79 980.135L2593.39 732.741L2599.62 722.789L3107.23 793.353" stroke="url(#paint34_linear_2134_14458)" stroke-miterlimit="10"/>
<path d="M-538.652 569.361L419.725 777.513L1262.82 347.645L1563.43 612.356L1201.78 994.708L1463.98 1230L2074.26 587.475L2440.43 999.229L2598.65 718.693L3111.87 788.831" stroke="url(#paint35_linear_2134_14458)" stroke-miterlimit="10"/>
<path d="M-535.982 593.319C-535.982 592.267 427.693 765.272 427.693 765.272L1221.2 388.579L1340.6 498.712L1509.17 638.049L1180.25 987.529L1414.9 1200.39L1449.28 1225.81L2079.96 564.556L2443.3 968.036L2571.6 763.58L2603.72 712.225L3109.07 784.267" stroke="url(#paint36_linear_2134_14458)" stroke-miterlimit="10"/>
<path d="M-533.326 617.276C-533.326 615.144 435.676 753.03 435.676 753.03L1179.58 429.513L1291.52 538.053L1454.88 663.855L1158.7 980.334L1399.38 1200.83L1434.63 1221.61L2085.65 541.707L2446.16 936.969L2575.79 753.229L2608.81 705.869L3106.28 779.803" stroke="url(#paint37_linear_2134_14458)" stroke-miterlimit="10"/>
<path d="M-530.67 641.233C-530.67 638.034 443.659 740.76 443.659 740.76L1138.02 470.446L1242.51 577.394L1400.63 689.575L1137.16 973.154L1383.75 1201.27L1419.89 1217.42L2091.35 518.717L2449.09 905.689L2580.01 742.679L2613.93 699.314L3103.52 775.196" stroke="url(#paint38_linear_2134_14458)" stroke-miterlimit="10"/>
<path d="M-528.014 665.191C-528.014 660.926 451.627 728.533 451.627 728.533L1096.34 511.38L1193.37 616.736L1346.37 715.367L1115.63 965.96L1368.13 1201.71L1405.16 1213.21L2097 495.812L2451.93 874.41L2584.16 732.229L2618.96 692.845L3100.68 770.618" stroke="url(#paint39_linear_2134_14458)" stroke-miterlimit="10"/>
<path d="M-525.329 689.148C-525.329 683.816 459.639 716.29 459.639 716.29L1054.81 552.314L1144.3 656.105L1292.12 741.143L1094.08 958.779L1352.6 1202.14L1390.52 1209.02L2102.74 472.892L2454.77 843.272L2588.3 721.707L2624.01 686.333L3097.84 766.053" stroke="url(#paint40_linear_2134_14458)" stroke-miterlimit="10"/>
<path d="M-522.687 713.106C-522.687 706.708 467.58 704.049 467.58 704.049L1013.12 593.248L1095.21 695.419L1237.85 766.864L1072.55 951.585L1337.01 1202.58L1375.8 1204.82L2108.44 449.973L2457.61 812.078L2592.56 711.243L2629.16 679.864L3095.07 761.504" stroke="url(#paint41_linear_2134_14458)" stroke-miterlimit="10"/>
<path d="M-520.03 737.064C-520.03 729.599 475.562 691.807 475.562 691.807L971.498 634.125L1046.13 734.703L1183.57 792.557L1051 944.405L1321.43 1203.02L1361.11 1200.63L2114.14 427.067L2460.54 780.883L2596.7 700.779L2634.2 673.395L3092.27 756.955" stroke="url(#paint42_linear_2134_14458)" stroke-miterlimit="10"/>
<path d="M-517.374 761.006C-517.374 752.475 483.545 679.565 483.545 679.565L929.879 675.115L997.052 774.115L1129.31 818.362L1029.47 937.21L1305.84 1203.46L1346.41 1196.42L2119.83 404.147L2463.41 749.646L2600.9 690.271L2639.25 666.883L3089.43 752.362" stroke="url(#paint43_linear_2134_14458)" stroke-miterlimit="10"/>
<path d="M-514.718 784.964C-514.718 775.381 491.514 667.324 491.514 667.324L888.26 716.049L947.919 813.457L1074.99 844.111L1007.88 930.031L1290.2 1203.88L1331.67 1192.23L2125.47 381.229L2466.28 718.495L2605.07 679.85L2644.36 660.457L3086.67 747.869" stroke="url(#paint44_linear_2134_14458)" stroke-miterlimit="10"/>
<path d="M-512.062 808.922C-512.062 798.272 499.497 655.082 499.497 655.082L846.655 756.983L898.899 852.799L1020.79 869.86L986.384 922.837L1274.74 1204.35L1316.99 1188.03L2131.22 358.295L2469.15 687.272L2609.26 669.343L2649.45 654.03L3083.88 743.334" stroke="url(#paint45_linear_2134_14458)" stroke-miterlimit="10"/>
<path d="M-509.392 832.879C-509.392 821.163 507.465 642.826 507.465 642.826L805.035 797.916L849.808 892.139L966.512 895.623L964.85 915.642L1259.1 1204.75L1302.33 1183.82L2136.92 335.403L2472.03 656.106L2613.44 658.949L2654.53 647.575L3081.08 738.798" stroke="url(#paint46_linear_2134_14458)" stroke-miterlimit="10"/>
<path d="M-506.735 856.836C-506.735 844.04 515.448 630.585 515.448 630.585L763.416 838.865L800.731 931.495L912.251 921.329L943.316 908.533L1243.53 1205.25L1287.56 1179.66L2142.54 312.513L2474.83 624.94L2617.56 648.471L2659.53 641.078L3078.19 734.22" stroke="url(#paint47_linear_2134_14458)" stroke-miterlimit="10"/>
<path d="M-504.022 880.794C-504.022 866.945 523.488 618.343 523.488 618.343L721.825 879.784L751.655 970.78L857.989 947.078L921.768 901.239L1227.95 1205.69L1272.96 1175.43L2148.33 289.564L2477.78 593.717L2621.82 637.978L2664.7 634.565L3075.51 729.627" stroke="url(#paint48_linear_2134_14458)" stroke-miterlimit="10"/>
<path d="M-501.423 904.751C-501.423 889.836 531.4 606.172 531.4 606.172L680.192 920.718L702.578 1010.16L803.714 972.87L900.305 894.102L1212.43 1206.07L1258.31 1171.24L2154.08 266.659L2480.78 562.523L2626.14 627.499L2669.91 628.096L3072.67 725.12" stroke="url(#paint49_linear_2134_14458)" stroke-miterlimit="10"/>
<path d="M-498.752 928.694C-498.752 912.727 539.383 593.859 539.383 593.859L638.573 961.651L653.502 1049.5L749.454 998.618L878.714 886.907L1196.8 1206.51L1243.57 1167.05L2159.76 243.739L2483.62 531.328L2630.17 617.063L2674.84 621.655L3069.83 720.527" stroke="url(#paint50_linear_2134_14458)" stroke-miterlimit="10"/>
<path d="M-496.096 952.609C-496.096 935.547 547.366 581.518 547.366 581.518L596.954 1002.49L604.411 1088.75L695.192 1024.27L857.124 879.628L1181.2 1206.94L1228.86 1162.87L2165.4 220.849L2486.42 500.162L2634.39 606.598L2679.96 615.129L3067.1 715.949" stroke="url(#paint51_linear_2134_14458)" stroke-miterlimit="10"/>
<path d="M-493.439 976.609C-493.439 958.509 555.335 569.375 555.335 569.375V1128.14L835.618 872.533L1165.62 1207.38L2171.1 197.9L2638.54 596.091L3064.27 711.399" stroke="url(#paint52_linear_2134_14458)" stroke-miterlimit="10"/>
</g>
<defs>
<linearGradient id="paint0_linear_2134_14458" x1="0" y1="540" x2="1920" y2="540" gradientUnits="userSpaceOnUse">
<stop stop-color="#070E20"/>
<stop offset="0.5" stop-color="#3E81C8"/>
<stop offset="1" stop-color="#B922AA"/>
</linearGradient>
<linearGradient id="paint1_linear_2134_14458" x1="-600.3" y1="612.712" x2="3064.3" y2="612.712" gradientUnits="userSpaceOnUse">
<stop stop-color="#3E81C8"/>
<stop offset="0.05" stop-color="#477CC6"/>
<stop offset="0.12" stop-color="#616FC0"/>
<stop offset="0.22" stop-color="#8A5BB6"/>
<stop offset="0.31" stop-color="#B744AB"/>
<stop offset="0.59" stop-color="#73BD9A"/>
<stop offset="0.79" stop-color="#6B266E"/>
<stop offset="0.99" stop-color="#280F8E"/>
</linearGradient>
<linearGradient id="paint2_linear_2134_14458" x1="-598.596" y1="630.527" x2="3062.44" y2="630.527" gradientUnits="userSpaceOnUse">
<stop stop-color="#3E81C8"/>
<stop offset="0.05" stop-color="#477CC6"/>
<stop offset="0.12" stop-color="#616FC0"/>
<stop offset="0.22" stop-color="#8A5BB6"/>
<stop offset="0.31" stop-color="#B744AB"/>
<stop offset="0.59" stop-color="#73BD9A"/>
<stop offset="0.79" stop-color="#6B266E"/>
<stop offset="0.99" stop-color="#280F8E"/>
</linearGradient>
<linearGradient id="paint3_linear_2134_14458" x1="-596.777" y1="648.855" x2="3060.57" y2="648.855" gradientUnits="userSpaceOnUse">
<stop stop-color="#3E81C8"/>
<stop offset="0.05" stop-color="#477CC6"/>
<stop offset="0.12" stop-color="#616FC0"/>
<stop offset="0.22" stop-color="#8A5BB6"/>
<stop offset="0.31" stop-color="#B744AB"/>
<stop offset="0.59" stop-color="#73BD9A"/>
<stop offset="0.79" stop-color="#6B266E"/>
<stop offset="0.99" stop-color="#280F8E"/>
</linearGradient>
<linearGradient id="paint4_linear_2134_14458" x1="-594.945" y1="667.181" x2="3058.69" y2="667.181" gradientUnits="userSpaceOnUse">
<stop stop-color="#3E81C8"/>
<stop offset="0.05" stop-color="#477CC6"/>
<stop offset="0.12" stop-color="#616FC0"/>
<stop offset="0.22" stop-color="#8A5BB6"/>
<stop offset="0.31" stop-color="#B744AB"/>
<stop offset="0.59" stop-color="#73BD9A"/>
<stop offset="0.79" stop-color="#6B266E"/>
<stop offset="0.99" stop-color="#280F8E"/>
</linearGradient>
<linearGradient id="paint5_linear_2134_14458" x1="-593.113" y1="685.509" x2="3056.83" y2="685.509" gradientUnits="userSpaceOnUse">
<stop stop-color="#3E81C8"/>
<stop offset="0.05" stop-color="#477CC6"/>
<stop offset="0.12" stop-color="#616FC0"/>
<stop offset="0.22" stop-color="#8A5BB6"/>
<stop offset="0.31" stop-color="#B744AB"/>
<stop offset="0.59" stop-color="#73BD9A"/>
<stop offset="0.79" stop-color="#6B266E"/>
<stop offset="0.99" stop-color="#280F8E"/>
</linearGradient>
<linearGradient id="paint6_linear_2134_14458" x1="-591.28" y1="703.836" x2="3054.97" y2="703.836" gradientUnits="userSpaceOnUse">
<stop stop-color="#3E81C8"/>
<stop offset="0.05" stop-color="#477CC6"/>
<stop offset="0.12" stop-color="#616FC0"/>
<stop offset="0.22" stop-color="#8A5BB6"/>
<stop offset="0.31" stop-color="#B744AB"/>
<stop offset="0.59" stop-color="#73BD9A"/>
<stop offset="0.79" stop-color="#6B266E"/>
<stop offset="0.99" stop-color="#280F8E"/>
</linearGradient>
<linearGradient id="paint7_linear_2134_14458" x1="-589.448" y1="722.177" x2="3053.11" y2="722.177" gradientUnits="userSpaceOnUse">
<stop stop-color="#3E81C8"/>
<stop offset="0.05" stop-color="#477CC6"/>
<stop offset="0.12" stop-color="#616FC0"/>
<stop offset="0.22" stop-color="#8A5BB6"/>
<stop offset="0.31" stop-color="#B744AB"/>
<stop offset="0.59" stop-color="#73BD9A"/>
<stop offset="0.79" stop-color="#6B266E"/>
<stop offset="0.99" stop-color="#280F8E"/>
</linearGradient>
<linearGradient id="paint8_linear_2134_14458" x1="-587.616" y1="740.504" x2="3051.26" y2="740.504" gradientUnits="userSpaceOnUse">
<stop stop-color="#3E81C8"/>
<stop offset="0.05" stop-color="#477CC6"/>
<stop offset="0.12" stop-color="#616FC0"/>
<stop offset="0.22" stop-color="#8A5BB6"/>
<stop offset="0.31" stop-color="#B744AB"/>
<stop offset="0.59" stop-color="#73BD9A"/>
<stop offset="0.79" stop-color="#6B266E"/>
<stop offset="0.99" stop-color="#280F8E"/>
</linearGradient>
<linearGradient id="paint9_linear_2134_14458" x1="-585.783" y1="758.846" x2="3049.4" y2="758.846" gradientUnits="userSpaceOnUse">
<stop stop-color="#3E81C8"/>
<stop offset="0.05" stop-color="#477CC6"/>
<stop offset="0.12" stop-color="#616FC0"/>
<stop offset="0.22" stop-color="#8A5BB6"/>
<stop offset="0.31" stop-color="#B744AB"/>
<stop offset="0.59" stop-color="#73BD9A"/>
<stop offset="0.79" stop-color="#6B266E"/>
<stop offset="0.99" stop-color="#280F8E"/>
</linearGradient>
<linearGradient id="paint10_linear_2134_14458" x1="-583.95" y1="777.2" x2="3047.56" y2="777.2" gradientUnits="userSpaceOnUse">
<stop stop-color="#3E81C8"/>
<stop offset="0.05" stop-color="#477CC6"/>
<stop offset="0.12" stop-color="#616FC0"/>
<stop offset="0.22" stop-color="#8A5BB6"/>
<stop offset="0.31" stop-color="#B744AB"/>
<stop offset="0.59" stop-color="#73BD9A"/>
<stop offset="0.79" stop-color="#6B266E"/>
<stop offset="0.99" stop-color="#280F8E"/>
</linearGradient>
<linearGradient id="paint11_linear_2134_14458" x1="-582.133" y1="795.542" x2="3045.71" y2="795.542" gradientUnits="userSpaceOnUse">
<stop stop-color="#3E81C8"/>
<stop offset="0.05" stop-color="#477CC6"/>
<stop offset="0.12" stop-color="#616FC0"/>
<stop offset="0.22" stop-color="#8A5BB6"/>
<stop offset="0.31" stop-color="#B744AB"/>
<stop offset="0.59" stop-color="#73BD9A"/>
<stop offset="0.79" stop-color="#6B266E"/>
<stop offset="0.99" stop-color="#280F8E"/>
</linearGradient>
<linearGradient id="paint12_linear_2134_14458" x1="-580.301" y1="813.898" x2="3043.85" y2="813.898" gradientUnits="userSpaceOnUse">
<stop stop-color="#3E81C8"/>
<stop offset="0.05" stop-color="#477CC6"/>
<stop offset="0.12" stop-color="#616FC0"/>
<stop offset="0.22" stop-color="#8A5BB6"/>
<stop offset="0.31" stop-color="#B744AB"/>
<stop offset="0.59" stop-color="#73BD9A"/>
<stop offset="0.79" stop-color="#6B266E"/>
<stop offset="0.99" stop-color="#280F8E"/>
</linearGradient>
<linearGradient id="paint13_linear_2134_14458" x1="-578.468" y1="832.267" x2="3042" y2="832.267" gradientUnits="userSpaceOnUse">
<stop stop-color="#3E81C8"/>
<stop offset="0.05" stop-color="#477CC6"/>
<stop offset="0.12" stop-color="#616FC0"/>
<stop offset="0.22" stop-color="#8A5BB6"/>
<stop offset="0.31" stop-color="#B744AB"/>
<stop offset="0.59" stop-color="#73BD9A"/>
<stop offset="0.79" stop-color="#6B266E"/>
<stop offset="0.99" stop-color="#280F8E"/>
</linearGradient>
<linearGradient id="paint14_linear_2134_14458" x1="-576.635" y1="850.637" x2="3040.15" y2="850.637" gradientUnits="userSpaceOnUse">
<stop stop-color="#3E81C8"/>
<stop offset="0.05" stop-color="#477CC6"/>
<stop offset="0.12" stop-color="#616FC0"/>
<stop offset="0.22" stop-color="#8A5BB6"/>
<stop offset="0.31" stop-color="#B744AB"/>
<stop offset="0.59" stop-color="#73BD9A"/>
<stop offset="0.79" stop-color="#6B266E"/>
<stop offset="0.99" stop-color="#280F8E"/>
</linearGradient>
<linearGradient id="paint15_linear_2134_14458" x1="-574.803" y1="867.855" x2="3038.29" y2="867.855" gradientUnits="userSpaceOnUse">
<stop stop-color="#3E81C8"/>
<stop offset="0.05" stop-color="#477CC6"/>
<stop offset="0.12" stop-color="#616FC0"/>
<stop offset="0.22" stop-color="#8A5BB6"/>
<stop offset="0.31" stop-color="#B744AB"/>
<stop offset="0.59" stop-color="#73BD9A"/>
<stop offset="0.79" stop-color="#6B266E"/>
<stop offset="0.99" stop-color="#280F8E"/>
</linearGradient>
<linearGradient id="paint16_linear_2134_14458" x1="-572.97" y1="863.206" x2="3036.45" y2="863.206" gradientUnits="userSpaceOnUse">
<stop stop-color="#3E81C8"/>
<stop offset="0.05" stop-color="#477CC6"/>
<stop offset="0.12" stop-color="#616FC0"/>
<stop offset="0.22" stop-color="#8A5BB6"/>
<stop offset="0.31" stop-color="#B744AB"/>
<stop offset="0.59" stop-color="#73BD9A"/>
<stop offset="0.79" stop-color="#6B266E"/>
<stop offset="0.99" stop-color="#280F8E"/>
</linearGradient>
<linearGradient id="paint17_linear_2134_14458" x1="-571.138" y1="858.556" x2="3034.6" y2="858.556" gradientUnits="userSpaceOnUse">
<stop stop-color="#3E81C8"/>
<stop offset="0.05" stop-color="#477CC6"/>
<stop offset="0.12" stop-color="#616FC0"/>
<stop offset="0.22" stop-color="#8A5BB6"/>
<stop offset="0.31" stop-color="#B744AB"/>
<stop offset="0.59" stop-color="#73BD9A"/>
<stop offset="0.79" stop-color="#6B266E"/>
<stop offset="0.99" stop-color="#280F8E"/>
</linearGradient>
<linearGradient id="paint18_linear_2134_14458" x1="-569.306" y1="872.888" x2="3032.75" y2="872.888" gradientUnits="userSpaceOnUse">
<stop stop-color="#3E81C8"/>
<stop offset="0.05" stop-color="#477CC6"/>
<stop offset="0.12" stop-color="#616FC0"/>
<stop offset="0.22" stop-color="#8A5BB6"/>
<stop offset="0.31" stop-color="#B744AB"/>
<stop offset="0.59" stop-color="#73BD9A"/>
<stop offset="0.79" stop-color="#6B266E"/>
<stop offset="0.99" stop-color="#280F8E"/>
</linearGradient>
<linearGradient id="paint19_linear_2134_14458" x1="-567.516" y1="870.088" x2="3037.41" y2="870.088" gradientUnits="userSpaceOnUse">
<stop stop-color="#3E81C8"/>
<stop offset="0.05" stop-color="#477CC6"/>
<stop offset="0.12" stop-color="#616FC0"/>
<stop offset="0.22" stop-color="#8A5BB6"/>
<stop offset="0.31" stop-color="#B744AB"/>
<stop offset="0.59" stop-color="#73BD9A"/>
<stop offset="0.79" stop-color="#6B266E"/>
<stop offset="0.99" stop-color="#280F8E"/>
</linearGradient>
<linearGradient id="paint20_linear_2134_14458" x1="-565.727" y1="867.315" x2="3042.07" y2="867.315" gradientUnits="userSpaceOnUse">
<stop stop-color="#3E81C8"/>
<stop offset="0.05" stop-color="#477CC6"/>
<stop offset="0.12" stop-color="#616FC0"/>
<stop offset="0.22" stop-color="#8A5BB6"/>
<stop offset="0.31" stop-color="#B744AB"/>
<stop offset="0.59" stop-color="#73BD9A"/>
<stop offset="0.79" stop-color="#6B266E"/>
<stop offset="0.99" stop-color="#280F8E"/>
</linearGradient>
<linearGradient id="paint21_linear_2134_14458" x1="-563.936" y1="863.462" x2="3046.73" y2="863.462" gradientUnits="userSpaceOnUse">
<stop stop-color="#3E81C8"/>
<stop offset="0.05" stop-color="#477CC6"/>
<stop offset="0.12" stop-color="#616FC0"/>
<stop offset="0.22" stop-color="#8A5BB6"/>
<stop offset="0.31" stop-color="#B744AB"/>
<stop offset="0.59" stop-color="#73BD9A"/>
<stop offset="0.79" stop-color="#6B266E"/>
<stop offset="0.99" stop-color="#280F8E"/>
</linearGradient>
<linearGradient id="paint22_linear_2134_14458" x1="-562.147" y1="836.931" x2="3051.39" y2="836.931" gradientUnits="userSpaceOnUse">
<stop stop-color="#3E81C8"/>
<stop offset="0.05" stop-color="#477CC6"/>
<stop offset="0.12" stop-color="#616FC0"/>
<stop offset="0.22" stop-color="#8A5BB6"/>
<stop offset="0.31" stop-color="#B744AB"/>
<stop offset="0.59" stop-color="#73BD9A"/>
<stop offset="0.79" stop-color="#6B266E"/>
<stop offset="0.99" stop-color="#280F8E"/>
</linearGradient>
<linearGradient id="paint23_linear_2134_14458" x1="-560.357" y1="814.58" x2="3056.05" y2="814.58" gradientUnits="userSpaceOnUse">
<stop stop-color="#3E81C8"/>
<stop offset="0.05" stop-color="#477CC6"/>
<stop offset="0.12" stop-color="#616FC0"/>
<stop offset="0.22" stop-color="#8A5BB6"/>
<stop offset="0.31" stop-color="#B744AB"/>
<stop offset="0.59" stop-color="#73BD9A"/>
<stop offset="0.79" stop-color="#6B266E"/>
<stop offset="0.99" stop-color="#280F8E"/>
</linearGradient>
<linearGradient id="paint24_linear_2134_14458" x1="-558.567" y1="792.997" x2="3060.71" y2="792.997" gradientUnits="userSpaceOnUse">
<stop stop-color="#3E81C8"/>
<stop offset="0.05" stop-color="#477CC6"/>
<stop offset="0.12" stop-color="#616FC0"/>
<stop offset="0.22" stop-color="#8A5BB6"/>
<stop offset="0.31" stop-color="#B744AB"/>
<stop offset="0.59" stop-color="#73BD9A"/>
<stop offset="0.79" stop-color="#6B266E"/>
<stop offset="0.99" stop-color="#280F8E"/>
</linearGradient>
<linearGradient id="paint25_linear_2134_14458" x1="-556.778" y1="775.864" x2="3065.37" y2="775.864" gradientUnits="userSpaceOnUse">
<stop stop-color="#3E81C8"/>
<stop offset="0.05" stop-color="#477CC6"/>
<stop offset="0.12" stop-color="#616FC0"/>
<stop offset="0.22" stop-color="#8A5BB6"/>
<stop offset="0.31" stop-color="#B744AB"/>
<stop offset="0.59" stop-color="#73BD9A"/>
<stop offset="0.79" stop-color="#6B266E"/>
<stop offset="0.99" stop-color="#280F8E"/>
</linearGradient>
<linearGradient id="paint26_linear_2134_14458" x1="-554.988" y1="774.399" x2="3070.03" y2="774.399" gradientUnits="userSpaceOnUse">
<stop stop-color="#3E81C8"/>
<stop offset="0.05" stop-color="#477CC6"/>
<stop offset="0.12" stop-color="#616FC0"/>
<stop offset="0.22" stop-color="#8A5BB6"/>
<stop offset="0.31" stop-color="#B744AB"/>
<stop offset="0.59" stop-color="#73BD9A"/>
<stop offset="0.79" stop-color="#6B266E"/>
<stop offset="0.99" stop-color="#280F8E"/>
</linearGradient>
<linearGradient id="paint27_linear_2134_14458" x1="-553.198" y1="780.755" x2="3074.69" y2="780.755" gradientUnits="userSpaceOnUse">
<stop stop-color="#3E81C8"/>
<stop offset="0.05" stop-color="#477CC6"/>
<stop offset="0.12" stop-color="#616FC0"/>
<stop offset="0.22" stop-color="#8A5BB6"/>
<stop offset="0.31" stop-color="#B744AB"/>
<stop offset="0.59" stop-color="#73BD9A"/>
<stop offset="0.79" stop-color="#6B266E"/>
<stop offset="0.99" stop-color="#280F8E"/>
</linearGradient>
<linearGradient id="paint28_linear_2134_14458" x1="-551.408" y1="789.997" x2="3079.36" y2="789.997" gradientUnits="userSpaceOnUse">
<stop stop-color="#3E81C8"/>
<stop offset="0.05" stop-color="#477CC6"/>
<stop offset="0.12" stop-color="#616FC0"/>
<stop offset="0.22" stop-color="#8A5BB6"/>
<stop offset="0.31" stop-color="#B744AB"/>
<stop offset="0.59" stop-color="#73BD9A"/>
<stop offset="0.79" stop-color="#6B266E"/>
<stop offset="0.99" stop-color="#280F8E"/>
</linearGradient>
<linearGradient id="paint29_linear_2134_14458" x1="-549.619" y1="800.547" x2="3084.02" y2="800.547" gradientUnits="userSpaceOnUse">
<stop stop-color="#3E81C8"/>
<stop offset="0.05" stop-color="#477CC6"/>
<stop offset="0.12" stop-color="#616FC0"/>
<stop offset="0.22" stop-color="#8A5BB6"/>
<stop offset="0.31" stop-color="#B744AB"/>
<stop offset="0.59" stop-color="#73BD9A"/>
<stop offset="0.79" stop-color="#6B266E"/>
<stop offset="0.99" stop-color="#280F8E"/>
</linearGradient>
<linearGradient id="paint30_linear_2134_14458" x1="-547.829" y1="798.314" x2="3088.68" y2="798.314" gradientUnits="userSpaceOnUse">
<stop stop-color="#3E81C8"/>
<stop offset="0.05" stop-color="#477CC6"/>
<stop offset="0.12" stop-color="#616FC0"/>
<stop offset="0.22" stop-color="#8A5BB6"/>
<stop offset="0.31" stop-color="#B744AB"/>
<stop offset="0.59" stop-color="#73BD9A"/>
<stop offset="0.79" stop-color="#6B266E"/>
<stop offset="0.99" stop-color="#280F8E"/>
</linearGradient>
<linearGradient id="paint31_linear_2134_14458" x1="-546.039" y1="795.997" x2="3093.34" y2="795.997" gradientUnits="userSpaceOnUse">
<stop stop-color="#3E81C8"/>
<stop offset="0.05" stop-color="#477CC6"/>
<stop offset="0.12" stop-color="#616FC0"/>
<stop offset="0.22" stop-color="#8A5BB6"/>
<stop offset="0.31" stop-color="#B744AB"/>
<stop offset="0.59" stop-color="#73BD9A"/>
<stop offset="0.79" stop-color="#6B266E"/>
<stop offset="0.99" stop-color="#280F8E"/>
</linearGradient>
<linearGradient id="paint32_linear_2134_14458" x1="-544.249" y1="793.949" x2="3098" y2="793.949" gradientUnits="userSpaceOnUse">
<stop stop-color="#3E81C8"/>
<stop offset="0.05" stop-color="#477CC6"/>
<stop offset="0.12" stop-color="#616FC0"/>
<stop offset="0.22" stop-color="#8A5BB6"/>
<stop offset="0.31" stop-color="#B744AB"/>
<stop offset="0.59" stop-color="#73BD9A"/>
<stop offset="0.79" stop-color="#6B266E"/>
<stop offset="0.99" stop-color="#280F8E"/>
</linearGradient>
<linearGradient id="paint33_linear_2134_14458" x1="-542.46" y1="792.087" x2="3102.65" y2="792.087" gradientUnits="userSpaceOnUse">
<stop stop-color="#3E81C8"/>
<stop offset="0.05" stop-color="#477CC6"/>
<stop offset="0.12" stop-color="#616FC0"/>
<stop offset="0.22" stop-color="#8A5BB6"/>
<stop offset="0.31" stop-color="#B744AB"/>
<stop offset="0.59" stop-color="#73BD9A"/>
<stop offset="0.79" stop-color="#6B266E"/>
<stop offset="0.99" stop-color="#280F8E"/>
</linearGradient>
<linearGradient id="paint34_linear_2134_14458" x1="-540.655" y1="790.381" x2="3107.31" y2="790.381" gradientUnits="userSpaceOnUse">
<stop stop-color="#3E81C8"/>
<stop offset="0.05" stop-color="#477CC6"/>
<stop offset="0.12" stop-color="#616FC0"/>
<stop offset="0.22" stop-color="#8A5BB6"/>
<stop offset="0.31" stop-color="#B744AB"/>
<stop offset="0.59" stop-color="#73BD9A"/>
<stop offset="0.79" stop-color="#6B266E"/>
<stop offset="0.99" stop-color="#280F8E"/>
</linearGradient>
<linearGradient id="paint35_linear_2134_14458" x1="-538.794" y1="788.902" x2="3111.97" y2="788.902" gradientUnits="userSpaceOnUse">
<stop stop-color="#3E81C8"/>
<stop offset="0.05" stop-color="#477CC6"/>
<stop offset="0.12" stop-color="#616FC0"/>
<stop offset="0.22" stop-color="#8A5BB6"/>
<stop offset="0.31" stop-color="#B744AB"/>
<stop offset="0.59" stop-color="#73BD9A"/>
<stop offset="0.79" stop-color="#6B266E"/>
<stop offset="0.99" stop-color="#280F8E"/>
</linearGradient>
<linearGradient id="paint36_linear_2134_14458" x1="-536.693" y1="807.244" x2="3109.17" y2="807.244" gradientUnits="userSpaceOnUse">
<stop stop-color="#3E81C8"/>
<stop offset="0.05" stop-color="#477CC6"/>
<stop offset="0.12" stop-color="#616FC0"/>
<stop offset="0.22" stop-color="#8A5BB6"/>
<stop offset="0.31" stop-color="#B744AB"/>
<stop offset="0.59" stop-color="#73BD9A"/>
<stop offset="0.79" stop-color="#6B266E"/>
<stop offset="0.99" stop-color="#280F8E"/>
</linearGradient>
<linearGradient id="paint37_linear_2134_14458" x1="-534.036" y1="825.585" x2="3106.37" y2="825.585" gradientUnits="userSpaceOnUse">
<stop stop-color="#3E81C8"/>
<stop offset="0.05" stop-color="#477CC6"/>
<stop offset="0.12" stop-color="#616FC0"/>
<stop offset="0.22" stop-color="#8A5BB6"/>
<stop offset="0.31" stop-color="#B744AB"/>
<stop offset="0.59" stop-color="#73BD9A"/>
<stop offset="0.79" stop-color="#6B266E"/>
<stop offset="0.99" stop-color="#280F8E"/>
</linearGradient>
<linearGradient id="paint38_linear_2134_14458" x1="-531.38" y1="843.94" x2="3103.59" y2="843.94" gradientUnits="userSpaceOnUse">
<stop stop-color="#3E81C8"/>
<stop offset="0.05" stop-color="#477CC6"/>
<stop offset="0.12" stop-color="#616FC0"/>
<stop offset="0.22" stop-color="#8A5BB6"/>
<stop offset="0.31" stop-color="#B744AB"/>
<stop offset="0.59" stop-color="#73BD9A"/>
<stop offset="0.79" stop-color="#6B266E"/>
<stop offset="0.99" stop-color="#280F8E"/>
</linearGradient>
<linearGradient id="paint39_linear_2134_14458" x1="-528.724" y1="854.405" x2="3100.79" y2="854.405" gradientUnits="userSpaceOnUse">
<stop stop-color="#3E81C8"/>
<stop offset="0.05" stop-color="#477CC6"/>
<stop offset="0.12" stop-color="#616FC0"/>
<stop offset="0.22" stop-color="#8A5BB6"/>
<stop offset="0.31" stop-color="#B744AB"/>
<stop offset="0.59" stop-color="#73BD9A"/>
<stop offset="0.79" stop-color="#6B266E"/>
<stop offset="0.99" stop-color="#280F8E"/>
</linearGradient>
<linearGradient id="paint40_linear_2134_14458" x1="-526.068" y1="840.826" x2="3097.99" y2="840.826" gradientUnits="userSpaceOnUse">
<stop stop-color="#3E81C8"/>
<stop offset="0.05" stop-color="#477CC6"/>
<stop offset="0.12" stop-color="#616FC0"/>
<stop offset="0.22" stop-color="#8A5BB6"/>
<stop offset="0.31" stop-color="#B744AB"/>
<stop offset="0.59" stop-color="#73BD9A"/>
<stop offset="0.79" stop-color="#6B266E"/>
<stop offset="0.99" stop-color="#280F8E"/>
</linearGradient>
<linearGradient id="paint41_linear_2134_14458" x1="-523.397" y1="827.249" x2="3095.2" y2="827.249" gradientUnits="userSpaceOnUse">
<stop stop-color="#3E81C8"/>
<stop offset="0.05" stop-color="#477CC6"/>
<stop offset="0.12" stop-color="#616FC0"/>
<stop offset="0.22" stop-color="#8A5BB6"/>
<stop offset="0.31" stop-color="#B744AB"/>
<stop offset="0.59" stop-color="#73BD9A"/>
<stop offset="0.79" stop-color="#6B266E"/>
<stop offset="0.99" stop-color="#280F8E"/>
</linearGradient>
<linearGradient id="paint42_linear_2134_14458" x1="-520.74" y1="814.893" x2="3092.4" y2="814.893" gradientUnits="userSpaceOnUse">
<stop stop-color="#3E81C8"/>
<stop offset="0.05" stop-color="#477CC6"/>
<stop offset="0.12" stop-color="#616FC0"/>
<stop offset="0.22" stop-color="#8A5BB6"/>
<stop offset="0.31" stop-color="#B744AB"/>
<stop offset="0.59" stop-color="#73BD9A"/>
<stop offset="0.79" stop-color="#6B266E"/>
<stop offset="0.99" stop-color="#280F8E"/>
</linearGradient>
<linearGradient id="paint43_linear_2134_14458" x1="-518.084" y1="803.675" x2="3089.6" y2="803.675" gradientUnits="userSpaceOnUse">
<stop stop-color="#3E81C8"/>
<stop offset="0.05" stop-color="#477CC6"/>
<stop offset="0.12" stop-color="#616FC0"/>
<stop offset="0.22" stop-color="#8A5BB6"/>
<stop offset="0.31" stop-color="#B744AB"/>
<stop offset="0.59" stop-color="#73BD9A"/>
<stop offset="0.79" stop-color="#6B266E"/>
<stop offset="0.99" stop-color="#280F8E"/>
</linearGradient>
<linearGradient id="paint44_linear_2134_14458" x1="-515.428" y1="792.457" x2="3086.82" y2="792.457" gradientUnits="userSpaceOnUse">
<stop stop-color="#3E81C8"/>
<stop offset="0.05" stop-color="#477CC6"/>
<stop offset="0.12" stop-color="#616FC0"/>
<stop offset="0.22" stop-color="#8A5BB6"/>
<stop offset="0.31" stop-color="#B744AB"/>
<stop offset="0.59" stop-color="#73BD9A"/>
<stop offset="0.79" stop-color="#6B266E"/>
<stop offset="0.99" stop-color="#280F8E"/>
</linearGradient>
<linearGradient id="paint45_linear_2134_14458" x1="-512.772" y1="781.239" x2="3084.02" y2="781.239" gradientUnits="userSpaceOnUse">
<stop stop-color="#3E81C8"/>
<stop offset="0.05" stop-color="#477CC6"/>
<stop offset="0.12" stop-color="#616FC0"/>
<stop offset="0.22" stop-color="#8A5BB6"/>
<stop offset="0.31" stop-color="#B744AB"/>
<stop offset="0.59" stop-color="#73BD9A"/>
<stop offset="0.79" stop-color="#6B266E"/>
<stop offset="0.99" stop-color="#280F8E"/>
</linearGradient>
<linearGradient id="paint46_linear_2134_14458" x1="-510.102" y1="770.006" x2="3081.22" y2="770.006" gradientUnits="userSpaceOnUse">
<stop stop-color="#3E81C8"/>
<stop offset="0.05" stop-color="#477CC6"/>
<stop offset="0.12" stop-color="#616FC0"/>
<stop offset="0.22" stop-color="#8A5BB6"/>
<stop offset="0.31" stop-color="#B744AB"/>
<stop offset="0.59" stop-color="#73BD9A"/>
<stop offset="0.79" stop-color="#6B266E"/>
<stop offset="0.99" stop-color="#280F8E"/>
</linearGradient>
<linearGradient id="paint47_linear_2134_14458" x1="-507.446" y1="758.789" x2="3078.42" y2="758.789" gradientUnits="userSpaceOnUse">
<stop stop-color="#3E81C8"/>
<stop offset="0.05" stop-color="#477CC6"/>
<stop offset="0.12" stop-color="#616FC0"/>
<stop offset="0.22" stop-color="#8A5BB6"/>
<stop offset="0.31" stop-color="#B744AB"/>
<stop offset="0.59" stop-color="#73BD9A"/>
<stop offset="0.79" stop-color="#6B266E"/>
<stop offset="0.99" stop-color="#280F8E"/>
</linearGradient>
<linearGradient id="paint48_linear_2134_14458" x1="-504.79" y1="747.57" x2="3075.64" y2="747.57" gradientUnits="userSpaceOnUse">
<stop stop-color="#3E81C8"/>
<stop offset="0.05" stop-color="#477CC6"/>
<stop offset="0.12" stop-color="#616FC0"/>
<stop offset="0.22" stop-color="#8A5BB6"/>
<stop offset="0.31" stop-color="#B744AB"/>
<stop offset="0.59" stop-color="#73BD9A"/>
<stop offset="0.79" stop-color="#6B266E"/>
<stop offset="0.99" stop-color="#280F8E"/>
</linearGradient>
<linearGradient id="paint49_linear_2134_14458" x1="-502.133" y1="736.338" x2="3072.84" y2="736.338" gradientUnits="userSpaceOnUse">
<stop stop-color="#3E81C8"/>
<stop offset="0.05" stop-color="#477CC6"/>
<stop offset="0.12" stop-color="#616FC0"/>
<stop offset="0.22" stop-color="#8A5BB6"/>
<stop offset="0.31" stop-color="#B744AB"/>
<stop offset="0.59" stop-color="#73BD9A"/>
<stop offset="0.79" stop-color="#6B266E"/>
<stop offset="0.99" stop-color="#280F8E"/>
</linearGradient>
<linearGradient id="paint50_linear_2134_14458" x1="-499.462" y1="725.12" x2="3070.04" y2="725.12" gradientUnits="userSpaceOnUse">
<stop stop-color="#3E81C8"/>
<stop offset="0.05" stop-color="#477CC6"/>
<stop offset="0.12" stop-color="#616FC0"/>
<stop offset="0.22" stop-color="#8A5BB6"/>
<stop offset="0.31" stop-color="#B744AB"/>
<stop offset="0.59" stop-color="#73BD9A"/>
<stop offset="0.79" stop-color="#6B266E"/>
<stop offset="0.99" stop-color="#280F8E"/>
</linearGradient>
<linearGradient id="paint51_linear_2134_14458" x1="-496.806" y1="713.888" x2="3067.24" y2="713.888" gradientUnits="userSpaceOnUse">
<stop stop-color="#3E81C8"/>
<stop offset="0.05" stop-color="#477CC6"/>
<stop offset="0.12" stop-color="#616FC0"/>
<stop offset="0.22" stop-color="#8A5BB6"/>
<stop offset="0.31" stop-color="#B744AB"/>
<stop offset="0.59" stop-color="#73BD9A"/>
<stop offset="0.79" stop-color="#6B266E"/>
<stop offset="0.99" stop-color="#280F8E"/>
</linearGradient>
<linearGradient id="paint52_linear_2134_14458" x1="-494.15" y1="702.669" x2="3064.46" y2="702.669" gradientUnits="userSpaceOnUse">
<stop stop-color="#3E81C8"/>
<stop offset="0.05" stop-color="#477CC6"/>
<stop offset="0.12" stop-color="#616FC0"/>
<stop offset="0.22" stop-color="#8A5BB6"/>
<stop offset="0.31" stop-color="#B744AB"/>
<stop offset="0.59" stop-color="#73BD9A"/>
<stop offset="0.79" stop-color="#6B266E"/>
<stop offset="0.99" stop-color="#280F8E"/>
</linearGradient>
<clipPath id="clip0_2134_14458">
<rect width="1920" height="1080" fill="white"/>
</clipPath>
</defs>
</svg>
