<svg width="180" height="36" viewBox="0 0 180 36" fill="none" xmlns="http://www.w3.org/2000/svg">
<path d="M48.4694 26.9549H35.3066V9.55273H40.2513V22.2924H48.4694V26.9549Z" fill="#ffffff"/>
<path d="M63.3491 26.9549H50.375V9.55273H63.3967V14.0743H55.3196V16.0045H62.785V20.5031H55.3196V22.4334H63.3557L63.3491 26.9549Z" fill="#ffffff"/>
<path d="M77.2921 18.2661V9.55273H82.0957V26.9549H78.2564L70.9797 18.3596V26.9549H66.1777V9.55273H69.8497L77.2921 18.2661Z" fill="#ffffff"/>
<path d="M92.4965 26.9549H85.2969V9.55273H92.5507C95.3431 9.55273 97.5013 10.3301 99.0254 11.8848C100.577 13.4374 101.353 15.5645 101.353 18.2661C101.353 20.9503 100.568 23.0697 98.9976 24.6245C97.4275 26.1792 95.2605 26.956 92.4965 26.9549ZM90.2005 14.2629V22.2448H92.7442C93.8889 22.2448 94.7598 21.8523 95.3567 21.0673C95.9777 20.2591 96.302 19.262 96.2751 18.2432C96.3041 17.2282 95.9775 16.2351 95.3518 15.4355C94.7548 14.6493 93.884 14.2568 92.7393 14.2579L90.2005 14.2629Z" fill="#ffffff"/>
<path d="M116.757 26.9549H103.781V9.55273H116.803V14.0743H108.732V16.0045H116.196V20.5031H108.732V22.4334H116.769L116.757 26.9549Z" fill="#ffffff"/>
<path d="M134.32 26.9549H128.744L125.989 21.515H124.48V26.9549H119.586V9.55273H127.168C129.354 9.55273 130.994 10.0994 132.088 11.1927C133.202 12.308 133.759 13.7293 133.759 15.4568C133.775 16.5307 133.516 17.5908 133.008 18.5367C132.5 19.461 131.718 20.2056 130.771 20.6687L134.32 26.9549ZM127.114 13.9988H124.48V17.2788H126.999C127.548 17.2788 127.973 17.1247 128.271 16.8196C128.557 16.4926 128.716 16.0745 128.721 15.6404C128.726 15.2063 128.576 14.7847 128.298 14.4515C128.144 14.2982 127.96 14.1791 127.757 14.102C127.554 14.0248 127.337 13.9913 127.12 14.0037L127.114 13.9988Z" fill="#ffffff"/>
<path d="M139.736 10.126H142.587V24.1366H149.862V26.6098H139.736V10.126Z" fill="#ffffff"/>
<path d="M161.495 23.0772H155.207L154.007 26.6098H151.016L156.903 10.126H159.918L165.781 26.6098H162.689L161.495 23.0772ZM158.34 13.611L155.965 20.604H160.698L158.34 13.611Z" fill="#ffffff"/>
<path d="M168.348 10.126H173.76C177.269 10.126 179.247 11.6331 179.247 14.4343V15.0477C179.247 16.3597 178.591 17.3076 177.481 17.8964C179.106 18.5097 180 19.6856 180 21.429V22.0177C180 25.0321 177.717 26.6098 174.467 26.6098H168.348V10.126ZM171.196 12.5975V16.978H173.647C175.451 16.978 176.33 16.2006 176.33 15.0231V14.5311C176.33 13.306 175.459 12.5991 173.576 12.5991L171.196 12.5975ZM171.196 19.2855V24.1366H174.235C176.143 24.1366 177.084 23.2428 177.084 21.9226V21.4519C177.084 20.1104 176.143 19.2855 174.235 19.2855H171.196Z" fill="#ffffff"/>
<path d="M0 17.4079L16.5691 0.838867L19.5785 3.89585L6.20253 17.4096L13.9483 25.1635L7.58506 25.0127L0 17.4079Z" fill="#50D890"/>
<path d="M28.6661 19.0984L12.097 35.6675L9.08594 32.6105L22.4635 19.0968L14.7177 11.3428L21.081 11.4937L28.6661 19.0984Z" fill="#50D890"/>
</svg>
